<?xml version="1.0" encoding="UTF-8"?>
<svg width="200px" height="37px" viewBox="0 0 200 37" version="1.1" xmlns="http://www.w3.org/2000/svg" xmlns:xlink="http://www.w3.org/1999/xlink">
    <title>D801521B-2EDE-416A-9803-0C9D6E467093@3x</title>
    <g id="May-2020" stroke="none" stroke-width="1" fill="none" fill-rule="evenodd">
        <g id="Style-Guide-Rebrand-Update" transform="translate(-41.000000, -26.000000)" fill-rule="nonzero">
            <g id="Coterie_Logo" transform="translate(41.000000, 26.000000)">
                <path d="M33.6315717,7.95579959 L33.6315717,36.1579959 C25.8437886,36.1579959 19.5305422,29.8447495 19.5305422,22.0569664 C19.5305422,14.2691833 25.8437886,7.95579959 33.6315717,7.95579959 L33.6315717,7.95579959 Z M7.18778312,15.0064516 C11.0816747,15.0064516 14.2382979,18.1630748 14.2382979,22.0569664 C14.2382979,25.9508579 11.0816747,29.1074811 7.18778312,29.1074811 C3.29389156,29.1074811 0.13726836,25.9508579 0.13726836,22.0569664 C0.13726836,18.1630748 3.29389156,15.0064516 7.18778312,15.0064516 Z M45.9741935,15.0064516 C49.8682224,15.0064516 53.0249828,18.1630748 53.0249828,22.0569664 C53.0249828,25.9508579 49.8682224,29.1074811 45.9741935,29.1074811 C42.080302,29.1074811 38.9236788,25.9508579 38.9236788,22.0569664 C38.9236788,18.1630748 42.080302,15.0064516 45.9741935,15.0064516 Z" id="Combined-Shape" fill="#4223FF"></path>
                <path d="M75.6716541,9.91571723 C81.2974605,9.91571723 86.1126973,13.6822237 86.8280027,18.7360329 L81.3927248,18.7360329 C80.8207275,16.5906658 78.4367879,15.0171585 75.6716541,15.0171585 C71.8096088,15.0171585 68.8539465,18.0684969 68.8539465,22.0734386 C68.8539465,26.0307481 71.8096088,29.0820865 75.6716541,29.0820865 C78.4367879,29.0820865 80.8683596,27.5087165 81.4403569,25.1724091 L86.8757721,25.1724091 C86.2560055,30.4647907 81.3450927,34.1835278 75.6716541,34.1835278 C68.8539465,34.1835278 63.609197,28.986685 63.609197,22.0734386 C63.609197,15.1603294 68.8539465,9.91571723 75.6716541,9.91571723 Z M140.493617,9.91557996 C146.786822,9.91557996 151.888264,14.730954 151.888264,21.5487989 C151.888264,22.1687028 151.840631,22.8362388 151.745367,23.3131091 L133.771174,23.3131091 C134.295539,27.0318463 136.726973,29.3678792 140.684146,29.3678792 C143.544955,29.3678792 145.785587,28.0330817 146.262457,26.0306108 L151.602334,26.0306108 C150.744132,30.9413864 146.310089,34.1833905 140.588881,34.1833905 C133.771174,34.1833905 128.478792,28.8912835 128.478792,21.9304049 C128.478792,15.1601922 133.771174,9.91557996 140.493617,9.91557996 Z M188.604667,9.91557996 C194.89801,9.91557996 199.999451,14.730954 199.999451,21.5487989 C199.999451,22.1687028 199.951819,22.8362388 199.856417,23.3131091 L181.882224,23.3131091 C182.406726,27.0318463 184.838023,29.3678792 188.795333,29.3678792 C191.656005,29.3678792 193.896774,28.0330817 194.373644,26.0306108 L199.713521,26.0306108 C198.855182,30.9413864 194.421139,34.1833905 188.699931,34.1833905 C181.882224,34.1833905 176.589979,28.8912835 176.589979,21.9304049 C176.589979,15.1601922 181.882224,9.91557996 188.604667,9.91557996 Z M100.936994,9.92079616 C107.635553,9.92079616 113.065752,15.3509952 113.065752,22.0495539 C113.065752,28.7479753 107.635553,34.1781743 100.936994,34.1781743 C94.2385724,34.1781743 88.8083734,28.7479753 88.8083734,22.0495539 C88.8083734,15.3509952 94.2385724,9.92079616 100.936994,9.92079616 Z M121.011942,4.28977351 L121.011942,9.96334935 L127.114619,9.96334935 L127.114619,15.0171585 L121.011942,15.0171585 L121.011942,24.8388469 C121.011942,27.7945093 122.823747,28.986685 125.398353,28.986685 L125.398353,28.986685 L127.114619,28.986685 L127.114619,33.992862 L124.254221,33.992862 C119.10501,33.992862 115.672203,30.8459849 115.672203,24.9341112 L115.672203,24.9341112 L115.672203,4.28977351 L121.011942,4.28977351 Z M173.92313,10.3924502 L173.92313,33.7066575 L168.631023,33.7066575 L168.631023,10.3924502 L173.92313,10.3924502 Z M159.885381,10.3929993 L159.885381,13.9688401 C161.243789,11.7671929 163.340151,10.4431023 166.03569,10.3973919 L166.03569,10.3973919 L166.03569,15.2085106 C162.650515,15.2085106 159.885381,17.5446809 159.885381,21.7402883 L159.885381,21.7402883 L159.885381,33.7072066 L154.593274,33.7072066 L154.593274,10.3929993 L159.885381,10.3929993 Z M100.936994,15.0171585 C97.0531229,15.0171585 93.9045985,18.1656829 93.9045985,22.0495539 C93.9045985,25.9334248 97.0531229,29.0819492 100.936994,29.0819492 C104.821002,29.0819492 107.969389,25.9334248 107.969389,22.0495539 C107.969389,18.1656829 104.821002,15.0171585 100.936994,15.0171585 Z M140.207412,14.3019904 C137.060673,14.3019904 134.772409,16.2566918 133.961702,19.2603981 L146.119423,19.2603981 C145.785587,16.3520933 143.401922,14.3019904 140.207412,14.3019904 Z M188.3186,14.3019904 C185.17186,14.3019904 182.883459,16.2566918 182.072889,19.2603981 L194.230611,19.2603981 C193.896774,16.3520933 191.513109,14.3019904 188.3186,14.3019904 Z M171.301441,0.13726836 C173.160741,0.13726836 174.734248,1.7106383 174.734248,3.52230611 C174.734248,5.4295127 173.160741,6.95511325 171.301441,6.95511325 C169.442004,6.95511325 167.916129,5.4295127 167.916129,3.52230611 C167.916129,1.7106383 169.442004,0.13726836 171.301441,0.13726836 Z" id="Combined-Shape" fill="#FFFFFF"></path>
            </g>
        </g>
    </g>
</svg>
