<svg id="Layer_1" data-name="Layer 1" xmlns="http://www.w3.org/2000/svg" xmlns:xlink="http://www.w3.org/1999/xlink" viewBox="0 0 2020 759.92"><defs><style>.cls-1{fill:#623776;}.cls-2{fill:url(#linear-gradient);}.cls-3{fill:url(#linear-gradient-2);}</style><linearGradient id="linear-gradient" x1="38.17" y1="423.59" x2="266.25" y2="423.59" gradientUnits="userSpaceOnUse"><stop offset="0" stop-color="#b280b9"/><stop offset="1" stop-color="#623776"/></linearGradient><linearGradient id="linear-gradient-2" x1="38.17" y1="491.49" x2="266.25" y2="491.49" xlink:href="#linear-gradient"/></defs><path class="cls-1" d="M361.76,427.13c0-47.71,37.42-82.27,88.55-82.27s88.26,34.56,88.26,82c0,47.7-37.13,82.84-88.55,82.84C398.89,509.68,361.76,474.83,361.76,427.13Zm129.11,0c0-25.43-17.14-42-40.85-42-23.42,0-40.56,16.56-40.56,41.41,0,25.71,17.14,42.56,40.85,42.56C473.73,469.11,490.87,452.26,490.87,427.13Z"/><path class="cls-1" d="M596.27,506.25l-65.41-158h50.56l39.13,106h.29l38.85-106h50.84l-65.41,158Z"/><path class="cls-1" d="M749.38,441.41c4,19.14,20.57,30,43.42,30,15.71,0,27.13-4.57,36.56-15.14l28,24.57c-16,17.13-37.13,28.56-66.84,28.56-51.13,0-88.26-34.56-88.26-82.26,0-47.42,34.56-82,86-82,46.27,0,78.26,31.7,78.26,74.55a129.86,129.86,0,0,1-2,21.71Zm.29-28.85h71.69c-2.86-19.71-15.71-29.71-34-29.71C767.37,382.85,753.38,394.28,749.67,412.56Z"/><path class="cls-1" d="M985,347.15l-1.71,45.13A72.85,72.85,0,0,0,965.89,390c-23.7,0-38.27,20.85-38.27,51.7v64.56H880.49v-158h47.13v21.42c10.85-16.28,26.85-23.7,42.84-23.7A104.33,104.33,0,0,1,985,347.15Z"/><path class="cls-1" d="M1317,306.3h51.7l-64.56,200h-51.41l-40.56-126.83-40.85,126.83h-51.41L1055,306.3h52l42.28,139.39,42.27-139.39h40.56l42.56,139.39Z"/><path class="cls-1" d="M1539.46,410.56v95.69h-47.13V418.56c0-20.85-10-32.28-30-32.28-21.42,0-37.13,17.42-37.13,41.7v78.27h-47.13V295.45h47.13v72.26c11.71-13.42,29.13-22.85,51.7-22.85C1515.18,344.86,1539.46,369.14,1539.46,410.56Z"/><path class="cls-1" d="M1706.85,414v92.26h-47.13V488c-9.14,11.14-26.56,21.71-52,21.71-33.13,0-55.12-20.57-55.12-50.28,0-28.85,19.13-51.13,64.55-51.13,13.14,0,30,.86,42.27,2-.85-16.85-12.85-26.56-36.56-26.56-14,0-31.7,5.43-43.13,14.28l-18.85-32.56c19.14-14,44.27-20.57,67.12-20.57C1682.86,344.86,1706.85,371.43,1706.85,414Zm-47.42,27.13v-3.43a239.7,239.7,0,0,0-30.56-1.71c-23.14,0-31.13,7.71-31.13,19.14s9.71,17.42,26,17.42C1642.58,472.54,1657.72,459.69,1659.43,441.12Z"/><path class="cls-1" d="M1732.27,506.25V295.45h47.13v210.8Z"/><path class="cls-1" d="M1846.81,441.41c4,19.14,20.57,30,43.42,30,15.71,0,27.13-4.57,36.56-15.14l28,24.57c-16,17.13-37.13,28.56-66.84,28.56-51.13,0-88.26-34.56-88.26-82.26,0-47.42,34.56-82,86-82,46.27,0,78.26,31.7,78.26,74.55a129.86,129.86,0,0,1-2,21.71Zm.29-28.85h71.69c-2.86-19.71-15.71-29.71-34-29.71C1864.81,382.85,1850.81,394.28,1847.1,412.56Z"/><path class="cls-1" d="M225.74,229.3C153.86,229.3,96.23,270.63,75.66,332a30.32,30.32,0,0,1,4.79,4.61l.08.11c2.42,2.64,13.52,12.66,22.6,17.57,11.11,6,27.71,9.08,41,9.73,7.52-43.87,42-71.9,85-71.9,29.68,0,53,11,71.67,31.39l47.08-43.69C316.5,245.84,274.93,229.3,225.74,229.3Z"/><path class="cls-2" d="M195.25,465c-20.48,2.69-41.29-7.43-59.53-23.49-14.84-13.07-28.22-30.61-25.32-35.88,2.55-4.62,11.91-4.85,16.45-6.09,9.29-2.55,17.6-7.64,25.41-13.15,3.84-2.7,7.69-5.43,11.32-8.42,1.49-1.23,4.84-3.29,5.29-5.3a6.45,6.45,0,0,0-2.87,1.19c-11.66,6.71-51.82,7.81-76.38-3.22-12.16-5.46-25.69-16.25-28.83-19.24-.87-.83-3.68-4-4.56-2.06s2.4,7.06,3.19,8.63a173.85,173.85,0,0,0,16.31,26.49,74.1,74.1,0,0,0,18.79,18c2,1.33,2.35,2.64,1.06,4.63a40.43,40.43,0,0,0-3.9,7,70.56,70.56,0,0,0-4.22,17.43,129.52,129.52,0,0,0-.66,29.84c.89,9,2.28,19.12,8.46,26.24.26.3.52.59.8.87,14.14,14.23,45.67,13.42,82.06-4.34,23.7-11.56,46-18.12,84.62-30.37C270.08,451.48,219.28,461.86,195.25,465Z"/><path class="cls-3" d="M102.2,510.63s40.77-1.05,65.56-11.94c44.58-19.58,48.94-26.73,101-40.21,28-7.26,72.29-10.89,65.89,5.73-10.28,26.66-27.74,50.65-55.5,60.64-16.67,6-34.68,6.25-52.17,5.42-15.89-.76-31.55-1.88-47.11-5.49-7.15-1.65-14.21-3.68-21.27-5.7C135.6,512.5,102.2,510.63,102.2,510.63Z"/></svg>