<?xml version="1.0" encoding="UTF-8" standalone="no"?>
<svg
   xmlns:dc="http://purl.org/dc/elements/1.1/"
   xmlns:cc="http://creativecommons.org/ns#"
   xmlns:rdf="http://www.w3.org/1999/02/22-rdf-syntax-ns#"
   xmlns:svg="http://www.w3.org/2000/svg"
   xmlns="http://www.w3.org/2000/svg"
   xmlns:sodipodi="http://sodipodi.sourceforge.net/DTD/sodipodi-0.dtd"
   xmlns:inkscape="http://www.inkscape.org/namespaces/inkscape"
   version="1.1"
   id="svg2"
   xml:space="preserve"
   width="932.94666"
   height="136.56"
   viewBox="0 0 932.94666 136.56"
   sodipodi:docname="FrankWinstonCrumInsurance_Full_Color_Print.eps"><metadata
     id="metadata8"><rdf:RDF><cc:Work
         rdf:about=""><dc:format>image/svg+xml</dc:format><dc:type
           rdf:resource="http://purl.org/dc/dcmitype/StillImage" /></cc:Work></rdf:RDF></metadata><defs
     id="defs6" /><sodipodi:namedview
     pagecolor="#ffffff"
     bordercolor="#666666"
     borderopacity="1"
     objecttolerance="10"
     gridtolerance="10"
     guidetolerance="10"
     inkscape:pageopacity="0"
     inkscape:pageshadow="2"
     inkscape:window-width="640"
     inkscape:window-height="480"
     id="namedview4" /><g
     id="g10"
     inkscape:groupmode="layer"
     inkscape:label="ink_ext_XXXXXX"
     transform="matrix(1.3333333,0,0,-1.3333333,0,136.56)"><g
       id="g12"
       transform="scale(0.1)"><path
         d="M 3252.82,921.699 3093.45,423.816 h -130.96 l -86.48,287.45 -97.6,-287.45 h -129.72 l -145.78,497.883 h 132.19 l 86.48,-317.918 101.31,317.918 h 106.25 l 95.13,-317.918 92.65,317.918 h 135.9"
         style="fill:#203566;fill-opacity:1;fill-rule:nonzero;stroke:none"
         id="path14" /><path
         d="m 3409.88,423.816 h -121.07 v 339.75 h 121.07 z m -59.3,401.11 c -21.97,-0.828 -39.53,5.898 -52.71,20.176 -11.8,12.902 -17.71,28.832 -17.71,47.773 0,17.563 5.36,32.668 16.06,45.297 12.08,13.723 28.42,21.008 49.01,21.824 21.96,0.828 39.54,-5.898 52.71,-20.176 11.8,-12.902 17.71,-28.824 17.71,-47.773 0,-17.567 -5.35,-32.672 -16.06,-45.301 -12.09,-13.73 -28.42,-20.996 -49.01,-21.82"
         style="fill:#203566;fill-opacity:1;fill-rule:nonzero;stroke:none"
         id="path16" /><path
         d="M 3797.19,423.816 H 3677.35 V 619.84 c 0,39.535 -18.34,58.894 -54.98,58.062 -16.42,-0.269 -30.45,-6.242 -42.07,-17.91 -11.62,-11.672 -17.43,-25.738 -17.43,-42.211 V 423.816 h -121.08 v 340.567 h 122.31 v -45.707 l 20.59,21.008 c 21.69,21.957 49.69,32.937 84.01,32.937 6.03,0 12.76,-0.269 20.18,-0.816 32.66,-2.754 59.16,-16.473 79.48,-41.18 19.22,-23.34 28.83,-51.621 28.83,-84.836 V 423.816"
         style="fill:#203566;fill-opacity:1;fill-rule:nonzero;stroke:none"
         id="path18" /><path
         d="m 4116.4,501.238 c -6.86,-27.449 -25.52,-49.695 -56,-66.707 -28.82,-15.918 -61.63,-23.886 -98.43,-23.886 -29.37,0 -56.28,5.488 -80.71,16.464 l -53.95,24.297 45.31,83.188 40.77,-21.821 c 14.82,-7.968 31.29,-11.945 49.41,-11.945 27.45,0 41.18,8.918 41.18,26.766 0,10.984 -6.45,18.261 -19.35,21.836 l -68.77,19.343 c -40.09,11.258 -60.13,38.848 -60.13,82.786 0,8.777 0.96,17.699 2.88,26.765 7.14,31.293 24.44,55.727 51.9,73.297 25.25,16.199 55.03,24.297 89.35,24.297 20.86,0 41.18,-3.16 60.95,-9.469 l 51.89,-16.472 -39.94,-76.188 -18.12,9.063 c -13.18,6.582 -27.18,9.882 -42.01,9.882 -12.63,0 -22.65,-2.472 -30.06,-7.41 -8.24,-5.219 -11.81,-12.219 -10.71,-21.004 1.37,-10.98 10.71,-18.402 28,-22.242 l 51.07,-11.527 c 46.68,-10.442 70.02,-41.465 70.02,-93.071 0,-12.085 -1.53,-24.16 -4.55,-36.242"
         style="fill:#203566;fill-opacity:1;fill-rule:nonzero;stroke:none"
         id="path20" /><path
         d="m 4374.33,663.496 h -68.77 v -239.68 h -119.84 v 239.68 h -37.06 v 100.07 h 38.3 v 98.832 h 118.6 v -98.832 h 68.77 v -100.07"
         style="fill:#203566;fill-opacity:1;fill-rule:nonzero;stroke:none"
         id="path22" /><path
         d="m 4669,596.582 c -0.83,20.641 -9.07,38.125 -24.71,52.445 -15.66,14.301 -34.05,21.196 -55.19,20.641 -20.04,-0.547 -37.2,-7.773 -51.47,-21.676 -14.28,-13.906 -21.97,-30.906 -23.06,-50.996 -1.11,-21.199 5.98,-39.848 21.2,-55.953 15.24,-16.102 33.43,-24.297 54.57,-24.57 21.68,-0.274 40.42,7.574 56.21,23.543 15.78,15.964 23.26,34.812 22.45,56.566 z m 124.78,1.023 c 1.09,-51.617 -18.95,-95.546 -60.13,-131.777 -39.54,-35.156 -86.48,-52.851 -140.84,-53.125 -56.01,-0.273 -104.05,17.149 -144.14,52.297 -42.28,37.059 -62.18,82.91 -59.71,137.543 2.19,49.418 23.33,90.602 63.42,123.547 38.71,31.293 84.29,47.078 136.72,47.359 54.08,0.266 101.03,-15.929 140.85,-48.597 41.45,-34.043 62.72,-76.457 63.83,-127.247"
         style="fill:#203566;fill-opacity:1;fill-rule:nonzero;stroke:none"
         id="path24" /><path
         d="M 5181.68,423.816 H 5061.85 V 619.84 c 0,39.535 -18.34,58.894 -54.99,58.062 -16.41,-0.269 -30.44,-6.242 -42.07,-17.91 -11.62,-11.672 -17.43,-25.738 -17.43,-42.211 V 423.816 h -121.07 v 340.567 h 122.31 v -45.707 l 20.59,21.008 c 21.69,21.957 49.69,32.937 84,32.937 6.04,0 12.77,-0.269 20.19,-0.816 32.66,-2.754 59.16,-16.473 79.48,-41.18 19.21,-23.34 28.82,-51.621 28.82,-84.836 V 423.816"
         style="fill:#203566;fill-opacity:1;fill-rule:nonzero;stroke:none"
         id="path26" /><path
         d="m 5598.29,768.371 c -26.5,37.102 -69.56,57.016 -113.95,57.016 -79.49,0 -133.17,-63.192 -133.17,-143.543 0,-81.742 54.34,-140.793 135.17,-140.793 42.39,0 84.79,21.289 111.95,54.945 V 434.57 c -43.06,-13.73 -74.19,-24.023 -114.59,-24.023 -69.59,0 -135.84,27.461 -187.51,76.211 -54.99,51.539 -80.17,118.832 -80.17,195.765 0,70.75 25.85,138.735 73.55,189.582 49.01,52.188 119.91,83.79 190.14,83.79 41.75,0 80.16,-9.625 118.58,-26.114 v -161.41"
         style="fill:#439ada;fill-opacity:1;fill-rule:nonzero;stroke:none"
         id="path28" /><path
         d="M 6019.98,763.668 V 582.117 c 0,-43.043 10.59,-73.523 60.3,-73.523 49.68,0 60.28,30.48 60.28,73.523 v 181.551 h 120.58 V 558.945 c 0,-111.984 -78.83,-146.425 -180.86,-146.425 -102.04,0 -180.88,34.441 -180.88,146.425 v 204.723 h 120.58"
         style="fill:#439ada;fill-opacity:1;fill-rule:nonzero;stroke:none"
         id="path30" /><path
         d="m 5862.76,768.371 c -47.03,0 -86.79,-18.543 -109.97,-60.285 h -1.35 v 55.656 H 5630.88 V 423.875 h 120.56 v 137.148 c 0,58.297 16.58,102.461 83.48,102.696 16.77,0.051 25.44,-4.981 31.89,-8.074 v 112.726 h -4.05"
         style="fill:#439ada;fill-opacity:1;fill-rule:nonzero;stroke:none"
         id="path32" /><path
         d="m 6414.3,721.242 h 1.32 c 28.48,37.781 63.61,53.684 107.33,53.684 49.02,0 91.42,-19.867 115.95,-64.926 23.18,42.391 68.9,64.926 115.29,64.926 86.11,0 115.93,-56.321 115.93,-134.496 V 423.797 h -120.58 v 162.308 c 0,35.114 1.33,92.762 -49.7,92.762 -55.64,0 -57.63,-52.355 -57.63,-92.762 V 423.797 h -120.58 v 162.308 c 0,37.766 0,95.403 -53.66,95.403 -53.67,0 -53.67,-57.637 -53.67,-95.403 V 423.797 h -120.57 v 339.871 h 120.57 v -42.426"
         style="fill:#439ada;fill-opacity:1;fill-rule:nonzero;stroke:none"
         id="path34" /><path
         d="m 6910.76,706.41 h -6.84 v 50.051 h -14.82 v 5.773 h 36.65 v -5.773 h -14.99 V 706.41"
         style="fill:#439ada;fill-opacity:1;fill-rule:nonzero;stroke:none"
         id="path36" /><path
         d="m 6939.92,765.426 22.32,-46.883 22.4,46.883 12.46,-59.016 h -7 l -7.9,37.766 h -0.16 l -19.8,-40.071 -19.71,40.071 h -0.17 l -7.89,-37.766 h -7.01 l 12.46,59.016"
         style="fill:#439ada;fill-opacity:1;fill-rule:nonzero;stroke:none"
         id="path38" /><path
         d="m 4934.66,11.9102 h -29.41 V 275.84 h 29.41 V 11.9102"
         style="fill:#203566;fill-opacity:1;fill-rule:nonzero;stroke:none"
         id="path40" /><path
         d="M 4996.95,287.039 5202.77,71.4141 V 275.84 h 29.41 V 0.0117188 L 5026.36,215.281 V 11.9102 h -29.41 V 287.039"
         style="fill:#203566;fill-opacity:1;fill-rule:nonzero;stroke:none"
         id="path42" /><path
         d="m 5406.81,224.383 c -10.49,18.203 -23.1,28.703 -45.5,28.703 -23.45,0 -43.75,-16.797 -43.75,-40.949 0,-22.754 23.44,-33.262 41.3,-41.309 l 17.51,-7.703 c 34.29,-15.051 63.34,-32.199 63.34,-74.1992 0,-46.211 -37.09,-81.56642 -82.95,-81.56642 -42.36,0 -73.86,27.30862 -82.26,68.26562 l 28.7,8.0469 c 3.85,-26.9531 24.5,-49.0039 52.86,-49.0039 28.35,0 54.25,21.6992 54.25,51.4531 0,30.8009 -24.15,41.3009 -48.65,52.4999 l -16.11,7.004 c -30.8,14.004 -57.4,29.754 -57.4,67.559 0,40.957 34.65,67.207 73.86,67.207 29.4,0 54.26,-15.051 68.25,-40.957 l -23.45,-15.051"
         style="fill:#203566;fill-opacity:1;fill-rule:nonzero;stroke:none"
         id="path44" /><path
         d="m 5511.45,118.672 c 0,-19.6017 -0.7,-42.004 11.56,-58.8009 11.55,-16.1016 33.95,-25.2031 53.2,-25.2031 18.91,0 39.56,8.75 51.81,23.4453 14,16.8086 12.94,39.914 12.94,60.5587 V 275.84 h 29.41 V 110.625 c 0,-28.7031 -2.1,-51.457 -23.11,-73.1562 -18.19,-19.6094 -44.45,-30.10942 -71.05,-30.10942 -24.85,0 -50.4,9.46092 -68.25,26.95702 -23.11,22.0508 -25.91,46.1992 -25.91,76.3086 V 275.84 h 29.4 V 118.672"
         style="fill:#203566;fill-opacity:1;fill-rule:nonzero;stroke:none"
         id="path46" /><path
         d="m 5758.9,153.68 h 9.11 c 33.25,0 66.85,6.3 66.85,47.258 0,43.398 -31.85,47.597 -67.21,47.597 h -8.75 z m 0,-141.7698 h -29.4 V 275.84 h 38.15 c 50.06,0 96.62,-13.301 96.62,-72.805 0,-40.605 -25.56,-69.305 -66.17,-72.812 l 84.02,-118.3128 h -36.06 l -79.81,115.8628 h -7.35 V 11.9102"
         style="fill:#203566;fill-opacity:1;fill-rule:nonzero;stroke:none"
         id="path48" /><path
         d="m 6029.8,219.832 -45.15,-105.711 h 89.26 z M 5972.75,86.8242 5940.9,11.9102 h -32.21 L 6030.51,288.445 6149.17,11.9102 h -32.55 l -31.16,74.914 h -112.71"
         style="fill:#203566;fill-opacity:1;fill-rule:nonzero;stroke:none"
         id="path50" /><path
         d="M 6179.6,287.039 6385.42,71.4141 V 275.84 h 29.4 V 0.0117188 L 6208.99,215.281 V 11.9102 H 6179.6 V 287.039"
         style="fill:#203566;fill-opacity:1;fill-rule:nonzero;stroke:none"
         id="path52" /><path
         d="m 6678.02,218.086 c -21.01,21.699 -50.06,35 -80.52,35 -58.8,0 -106.41,-51.106 -106.41,-109.211 0,-58.1055 47.96,-109.207 107.11,-109.207 29.76,0 58.81,14.0039 79.82,35 V 33.2617 c -22.76,-16.4414 -50.77,-25.90232 -78.76,-25.90232 -74.56,0 -137.57,60.55862 -137.57,135.47262 0,75.606 61.95,137.559 137.57,137.559 29.4,0 55.3,-8.399 78.76,-25.899 v -36.406"
         style="fill:#203566;fill-opacity:1;fill-rule:nonzero;stroke:none"
         id="path54" /><path
         d="m 6734.69,275.84 h 136.86 v -27.305 h -107.46 v -78.41 h 104.32 V 142.832 H 6764.09 V 39.2188 h 107.46 V 11.9102 H 6734.69 V 275.84"
         style="fill:#203566;fill-opacity:1;fill-rule:nonzero;stroke:none"
         id="path56" /><path
         d="m 899.59,846.461 v -83.488 h 128.33 V 652.996 H 899.59 V 423.086 H 769.742 V 956.422 H 1056.61 V 846.461 H 899.59"
         style="fill:#439ada;fill-opacity:1;fill-rule:nonzero;stroke:none"
         id="path58" /><path
         d="m 1429.73,592.684 c 0,-43.067 28.5,-76.172 77.52,-76.172 49.02,0 77.5,33.105 77.5,76.172 0,41.746 -28.48,76.871 -77.5,76.871 -49.02,0 -77.52,-35.125 -77.52,-76.871 m 271.63,-169.598 h -120.58 v 37.762 h -1.32 c -21.21,-33.778 -62.94,-49.024 -102.68,-49.024 -100.7,0 -171.6,84.141 -171.6,181.524 0,97.386 69.56,180.875 170.26,180.875 39.09,0 80.16,-14.578 105.34,-44.383 v 33.125 h 120.58 V 423.086"
         style="fill:#439ada;fill-opacity:1;fill-rule:nonzero;stroke:none"
         id="path60" /><path
         d="m 1854.52,719.227 h 1.34 c 27.82,41.082 61.6,54.996 108.66,54.996 91.42,0 127.86,-57.649 127.86,-141.118 V 423.086 h -120.59 v 165.633 c 0,32.461 5.3,89.445 -54.33,89.445 -49.02,0 -62.94,-36.441 -62.94,-78.844 V 423.086 h -120.57 v 339.879 h 120.57 v -43.738"
         style="fill:#439ada;fill-opacity:1;fill-rule:nonzero;stroke:none"
         id="path62" /><path
         d="m 2245.54,650.164 125.21,112.801 h 155.21 L 2355.71,605.949 2536.57,423.086 h -159.19 l -131.84,128.73 v -128.73 h -120.58 v 533.543 h 120.58 V 650.164"
         style="fill:#439ada;fill-opacity:1;fill-rule:nonzero;stroke:none"
         id="path64" /><path
         d="m 1292.54,767.594 c -47.03,0 -86.79,-18.547 -109.97,-60.289 h -1.33 v 55.66 H 1060.67 V 423.086 h 120.57 v 137.156 c 0,58.297 16.57,102.457 83.47,102.692 16.75,0.054 25.43,-4.981 31.89,-8.079 v 112.739 h -4.06"
         style="fill:#439ada;fill-opacity:1;fill-rule:nonzero;stroke:none"
         id="path66" /><path
         d="m 514.969,565.797 c 20.066,-34.746 8.183,-79.266 -26.606,-99.344 -34.797,-20.058 -79.297,-8.133 -99.359,26.641 -16.609,28.734 -11.316,64.054 10.672,86.836 l -51.754,89.57 c -70.301,-52.09 -91.93,-149.699 -47.137,-227.344 48.203,-83.484 154.965,-112.117 238.477,-63.875 83.511,48.192 112.133,154.965 63.929,238.477 -44.878,77.676 -140.406,107.715 -220.718,72.734 l 51.715,-89.562 c 30.742,7.75 64.125,-5.278 80.781,-34.133"
         style="fill:#97d548;fill-opacity:1;fill-rule:nonzero;stroke:none"
         id="path68" /><path
         d="m 388.793,886.004 c 20.078,34.824 64.59,46.726 99.363,26.644 34.762,-20.117 46.688,-64.601 26.617,-99.347 -16.605,-28.781 -49.851,-41.848 -80.546,-34.188 l -51.715,-89.621 c 80.261,-34.824 175.66,-4.738 220.468,72.871 48.211,83.5 19.571,190.262 -63.914,238.437 -83.511,48.24 -190.257,19.63 -238.492,-63.859 -44.84,-77.738 -23.094,-175.433 47.321,-227.543 l 51.757,89.61 c -22.121,22.719 -27.515,58.168 -10.859,86.996"
         style="fill:#439ada;fill-opacity:1;fill-rule:nonzero;stroke:none"
         id="path70" /><path
         d="m 174.563,616.563 c -40.18,0 -72.743,32.578 -72.743,72.742 0,40.133 32.563,72.734 72.743,72.734 33.203,0 61.16,-22.266 69.875,-52.641 H 347.895 C 337.922,796.316 264.18,863.887 174.563,863.887 78.1523,863.887 0,785.723 0,689.305 0,592.887 78.1523,514.707 174.563,514.707 c 89.703,0 163.503,67.695 173.371,154.785 h -103.45 c -8.632,-30.539 -36.656,-52.929 -69.921,-52.929"
         style="fill:#203566;fill-opacity:1;fill-rule:nonzero;stroke:none"
         id="path72" /></g></g></svg>
